<svg width="42" height="44" viewBox="0 0 42 44" fill="none" xmlns="http://www.w3.org/2000/svg">
<path d="M42 22C42 22.584 41.7451 23.1387 41.3018 23.5186L34.3018 29.5186C33.9248 29.8418 33.4619 30 33.001 30C32.4375 30 31.877 29.7627 31.4814 29.3018C30.7627 28.4629 30.8594 27.2002 31.6982 26.4814L34.5933 24H18C16.8955 24 16 23.1045 16 22C16 20.8955 16.8955 20 18 20H34.5933L31.6982 17.5186C30.8594 16.7998 30.7627 15.5371 31.4814 14.6982C32.2012 13.8604 33.4648 13.7637 34.3018 14.4814L41.3018 20.4814C41.7451 20.8613 42 21.416 42 22ZM24 36C24 38.2061 22.2061 40 20 40H8C5.79443 40 4 38.2061 4 36V8C4 5.79395 5.79443 4 8 4H20C22.2061 4 24 5.79395 24 8V17H28V8C28 3.58887 24.4111 0 20 0H8C3.58887 0 0 3.58887 0 8V36C0 40.4111 3.58887 44 8 44H20C24.4111 44 28 40.4111 28 36V27H24V36Z" fill="#F9564F"/>
</svg>
