<svg width="1200" height="125" viewBox="0 0 1200 125" fill="none" xmlns="http://www.w3.org/2000/svg">
<g clip-path="url(#clip0_37_80)">
<path d="M53.9576 125H32.7118C22.4462 125 14.5197 122.28 8.93214 116.841C3.34456 111.402 0.550781 103.567 0.550781 93.336V31.7566C0.550781 21.5257 3.34456 13.6907 8.93214 8.25156C14.5197 2.81237 22.4462 0.0927734 32.7118 0.0927734H53.9576C64.0932 0.0927734 71.9547 2.87712 77.5423 8.44582C83.2598 13.885 86.1186 21.6553 86.1186 31.7566V40.8867C86.1186 43.7359 84.6893 45.1603 81.8304 45.1603H65.4576C62.7287 45.1603 61.3643 43.7359 61.3643 40.8867V32.9222C61.3643 28.7781 60.4547 25.8642 58.6355 24.1806C56.9462 22.3676 54.0225 21.461 49.8643 21.461H36.6101C32.5818 21.461 29.6581 22.3676 27.8389 24.1806C26.1496 25.8642 25.305 28.7781 25.305 32.9222V92.1705C25.305 96.3146 26.1496 99.2933 27.8389 101.106C29.6581 102.79 32.5818 103.632 36.6101 103.632H49.8643C54.0225 103.632 56.9462 102.79 58.6355 101.106C60.4547 99.2933 61.3643 96.3146 61.3643 92.1705V84.2059C61.3643 81.3568 62.7287 79.9323 65.4576 79.9323H81.8304C84.6893 79.9323 86.1186 81.3568 86.1186 84.2059V93.336C86.1186 103.437 83.2598 111.272 77.5423 116.841C71.9547 122.28 64.0932 125 53.9576 125ZM153.381 125H136.813C134.085 125 132.72 123.64 132.72 120.92V79.3495L97.0506 4.36641C96.5308 3.20087 96.5308 2.22958 97.0506 1.45257C97.7003 0.546037 98.6099 0.0927734 99.7794 0.0927734H120.44C122.519 0.0927734 124.079 1.45257 125.118 4.17217L144.61 51.3766H145.974L165.076 4.17217C165.986 1.45257 167.545 0.0927734 169.754 0.0927734H190.415C191.715 0.0927734 192.624 0.481287 193.144 1.25831C193.793 2.03534 193.793 3.07137 193.144 4.36641L157.474 79.3495V120.92C157.474 123.64 156.11 125 153.381 125ZM234.973 104.409H256.803C261.091 104.409 264.146 103.567 265.964 101.883C267.914 100.07 268.888 97.1565 268.888 93.1418V81.8749C268.888 77.8602 267.914 75.0112 265.964 73.3276C264.015 71.644 260.832 70.8022 256.413 70.8022H234.973C233.544 70.8022 232.829 71.5146 232.829 72.9391V102.272C232.829 103.696 233.544 104.409 234.973 104.409ZM234.973 50.7938H254.854C259.012 50.7938 262.066 49.9521 264.015 48.2685C265.964 46.4554 266.939 43.5416 266.939 39.5269V31.9509C266.939 27.9362 265.964 25.0872 264.015 23.4036C262.197 21.5906 259.207 20.684 255.049 20.684H234.973C233.544 20.684 232.829 21.3963 232.829 22.8208V48.657C232.829 50.0815 233.544 50.7938 234.973 50.7938ZM208.075 120.92V4.17217C208.075 1.45257 209.439 0.0927734 212.168 0.0927734H258.947C269.214 0.0927734 277.139 2.81237 282.727 8.25156C288.315 13.6907 291.108 21.461 291.108 31.5624V39.5269C291.108 50.5348 285.976 57.6575 275.71 60.8951C280.908 61.6722 285.066 63.809 288.185 67.3056C291.303 70.6727 292.863 75.5291 292.863 81.8749V93.5303C292.863 103.632 290.069 111.402 284.481 116.841C278.893 122.28 271.032 125 260.897 125H212.168C209.439 125 208.075 123.64 208.075 120.92ZM384.022 125H320.285C317.556 125 316.191 123.64 316.191 120.92V4.17217C316.191 1.45257 317.556 0.0927734 320.285 0.0927734H384.022C386.62 0.0927734 387.92 1.45257 387.92 4.17217V17.3816C387.92 20.1012 386.62 21.461 384.022 21.461H343.285C341.725 21.461 340.946 22.1733 340.946 23.5978V48.8512C340.946 50.2757 341.725 50.988 343.285 50.988H376.615C379.344 50.988 380.708 52.3478 380.708 55.0674V68.2769C380.708 70.9965 379.344 72.3563 376.615 72.3563H343.285C341.725 72.3563 340.946 73.0686 340.946 74.4931V101.495C340.946 102.919 341.725 103.632 343.285 103.632H384.022C386.62 103.632 387.92 104.991 387.92 107.711V120.92C387.92 123.64 386.62 125 384.022 125ZM430.122 125H413.554C410.825 125 409.461 123.64 409.461 120.92V4.17217C409.461 1.45257 410.825 0.0927734 413.554 0.0927734H459.944C470.08 0.0927734 478.007 2.87712 483.724 8.44582C489.442 14.0145 492.3 21.8495 492.3 31.9509V47.1029C492.3 61.7369 486.519 71.4497 474.952 76.2414V77.0184L495.808 120.338C496.978 123.446 495.874 125 492.495 125H476.707C474.368 125 472.68 124.741 471.639 124.223C470.6 123.705 469.756 122.604 469.105 120.92L449.613 78.961H436.554C434.995 78.961 434.215 79.6733 434.215 81.0978V120.92C434.215 123.64 432.851 125 430.122 125ZM436.359 59.1468H455.461C459.62 59.1468 462.673 58.3051 464.622 56.6215C466.571 54.8085 467.546 51.9593 467.546 48.0742V32.9222C467.546 28.9075 466.571 25.9936 464.622 24.1806C462.673 22.3676 459.62 21.461 455.461 21.461H436.359C434.93 21.461 434.215 22.1733 434.215 23.5978V57.01C434.215 58.4345 434.93 59.1468 436.359 59.1468ZM536.717 125H520.149C517.42 125 516.056 123.64 516.056 120.92V4.17217C516.056 1.45257 517.42 0.0927734 520.149 0.0927734H567.708C577.844 0.0927734 585.705 2.87712 591.293 8.44582C596.881 13.885 599.674 21.6553 599.674 31.7566V50.4053C599.674 60.5066 596.881 68.3416 591.293 73.9103C585.705 79.3495 577.844 82.0691 567.708 82.0691H543.149C541.59 82.0691 540.81 82.7815 540.81 84.2059V120.92C540.81 123.64 539.446 125 536.717 125ZM542.954 60.5066H563.615C567.773 60.5066 570.697 59.6649 572.386 57.9813C574.076 56.1683 574.92 53.2544 574.92 49.2397V32.9222C574.92 28.7781 574.076 25.8642 572.386 24.1806C570.697 22.3676 567.773 21.461 563.615 21.461H542.954C541.525 21.461 540.81 22.1733 540.81 23.5978V58.3698C540.81 59.7943 541.525 60.5066 542.954 60.5066ZM632.473 125H613.761C611.422 125 610.642 123.64 611.422 120.92L642.219 4.17217C643.129 1.45257 645.078 0.0927734 648.066 0.0927734H673.99C677.239 0.0927734 679.188 1.45257 679.837 4.17217L710.634 120.92C711.413 123.64 710.634 125 708.295 125H689.583C688.154 125 687.18 124.741 686.659 124.223C686.141 123.575 685.751 122.475 685.49 120.92L680.032 99.5522H642.024L636.566 120.92C636.307 122.475 635.852 123.575 635.202 124.223C634.683 124.741 633.773 125 632.473 125ZM660.736 23.5978L646.702 79.738H675.549L661.515 23.5978H660.736ZM748.183 125H732.005C729.276 125 727.912 123.64 727.912 120.92V4.17217C727.912 1.45257 729.276 0.0927734 732.005 0.0927734H746.624C749.352 0.0927734 751.171 0.999305 752.081 2.81237L791.454 76.4357H792.234V4.17217C792.234 1.45257 793.598 0.0927734 796.327 0.0927734H812.505C815.234 0.0927734 816.598 1.45257 816.598 4.17217V120.92C816.598 123.64 815.234 125 812.505 125H798.276C795.417 125 793.339 123.705 792.039 121.115L753.056 48.8512H752.276V120.92C752.276 123.64 750.912 125 748.183 125ZM868.829 103.632H890.074C894.232 103.632 897.156 102.79 898.846 101.106C900.664 99.2933 901.575 96.3146 901.575 92.1705V32.9222C901.575 28.7781 900.664 25.8642 898.846 24.1806C897.156 22.3676 894.232 21.461 890.074 21.461H868.829C867.398 21.461 866.685 22.1733 866.685 23.5978V101.495C866.685 102.919 867.398 103.632 868.829 103.632ZM841.93 120.92V4.17217C841.93 1.45257 843.295 0.0927734 846.024 0.0927734H894.168C904.303 0.0927734 912.164 2.87712 917.753 8.44582C923.469 13.885 926.329 21.6553 926.329 31.7566V93.336C926.329 103.437 923.469 111.272 917.753 116.841C912.164 122.28 904.303 125 894.168 125H846.024C843.295 125 841.93 123.64 841.93 120.92ZM975.395 4.17217V120.92C975.395 123.64 974.03 125 971.302 125H954.734C952.005 125 950.641 123.64 950.641 120.92V4.17217C950.641 1.45257 952.005 0.0927734 954.734 0.0927734H971.302C974.03 0.0927734 975.395 1.45257 975.395 4.17217ZM1021.9 125H1005.72C1002.99 125 1001.63 123.64 1001.63 120.92V4.17217C1001.63 1.45257 1002.99 0.0927734 1005.72 0.0927734H1020.34C1023.07 0.0927734 1024.89 0.999305 1025.8 2.81237L1065.17 76.4357H1065.95V4.17217C1065.95 1.45257 1067.32 0.0927734 1070.05 0.0927734H1086.22C1088.95 0.0927734 1090.32 1.45257 1090.32 4.17217V120.92C1090.32 123.64 1088.95 125 1086.22 125H1071.99C1069.14 125 1067.06 123.705 1065.76 121.115L1026.77 48.8512H1025.99V120.92C1025.99 123.64 1024.63 125 1021.9 125ZM1149.76 103.632H1163.6C1167.76 103.632 1170.68 102.79 1172.37 101.106C1174.19 99.2933 1175.1 96.3146 1175.1 92.1705V32.9222C1175.1 28.7781 1174.19 25.8642 1172.37 24.1806C1170.68 22.3676 1167.76 21.461 1163.6 21.461H1149.76C1145.6 21.461 1142.68 22.3676 1140.99 24.1806C1139.3 25.8642 1138.45 28.7781 1138.45 32.9222V92.1705C1138.45 96.3146 1139.3 99.2933 1140.99 101.106C1142.68 102.79 1145.6 103.632 1149.76 103.632ZM1167.69 125H1145.86C1135.59 125 1127.67 122.28 1122.08 116.841C1116.49 111.402 1113.7 103.567 1113.7 93.336V31.7566C1113.7 21.5257 1116.49 13.6907 1122.08 8.25156C1127.67 2.81237 1135.59 0.0927734 1145.86 0.0927734H1167.69C1177.96 0.0927734 1185.88 2.81237 1191.47 8.25156C1197.06 13.6907 1199.85 21.5257 1199.85 31.7566V93.336C1199.85 103.567 1197.06 111.402 1191.47 116.841C1185.88 122.28 1177.96 125 1167.69 125Z" fill="white"/>
</g>
<defs>
<clipPath id="clip0_37_80">
<rect width="1200" height="125" fill="white"/>
</clipPath>
</defs>
</svg>
